<mxfile host="app.diagrams.net" modified="2022-10-03T08:48:31.964Z" agent="5.0 (Windows NT 10.0; Win64; x64) AppleWebKit/537.36 (KHTML, like Gecko) Chrome/105.0.0.0 Safari/537.36 Edg/105.0.1343.53" etag="g_KJIhb1zUYgFkj8T5Wj" version="20.4.0" type="github">
  <diagram id="6WSu5Rh9NiAs8zhsdzuB" name="第 1 页">
    <mxGraphModel dx="1421" dy="762" grid="1" gridSize="10" guides="1" tooltips="1" connect="1" arrows="1" fold="1" page="1" pageScale="1" pageWidth="827" pageHeight="1169" math="1" shadow="0">
      <root>
        <mxCell id="0" />
        <mxCell id="1" parent="0" />
      </root>
    </mxGraphModel>
  </diagram>
</mxfile>
